<svg xmlns="http://www.w3.org/2000/svg" xmlns:oryx="http://oryx-editor.org" id="_2B0D4758-258F-4AAB-BB8A-8D6C06625472" width="698" height="259" xmlns:xlink="http://www.w3.org/1999/xlink" xmlns:svg="http://www.w3.org/2000/svg"><defs><marker id="_67CB21CD-1A8E-4884-BBBA-3B4891BDE512start" refX="1" refY="5" markerUnits="userSpaceOnUse" markerWidth="17" markerHeight="11" orient="auto" fill="#000000" stroke="#000000"> 	  		<path id="_67CB21CD-1A8E-4884-BBBA-3B4891BDE512conditional" d="M 0 5 L 8 0 L 16 5 L 8 10 L 0 5" fill="white" stroke="#000000" stroke-width="1" display="none"/> 			<path id="_67CB21CD-1A8E-4884-BBBA-3B4891BDE512default" d="M 5 0 L 11 10" fill="white" stroke="#000000" stroke-width="1" display="none"/> 	  	</marker><marker id="_67CB21CD-1A8E-4884-BBBA-3B4891BDE512end" refX="15" refY="6" markerUnits="userSpaceOnUse" markerWidth="15" markerHeight="12" orient="auto" fill="#000000" stroke="#000000"> 	  		<path id="_67CB21CD-1A8E-4884-BBBA-3B4891BDE512frame2" d="M 0 1 L 15 6 L 0 11z" fill="#000000" stroke="#000000" stroke-linejoin="round" stroke-width="2"/> 	  	</marker><marker id="_B6D5E244-24D6-4CE5-AE9A-5E1E015DDD09start" refX="1" refY="5" markerUnits="userSpaceOnUse" markerWidth="17" markerHeight="11" orient="auto" fill="#000000" stroke="#000000"> 	  		<path id="_B6D5E244-24D6-4CE5-AE9A-5E1E015DDD09conditional" d="M 0 5 L 8 0 L 16 5 L 8 10 L 0 5" fill="white" stroke="#000000" stroke-width="1" display="none"/> 			<path id="_B6D5E244-24D6-4CE5-AE9A-5E1E015DDD09default" d="M 5 0 L 11 10" fill="white" stroke="#000000" stroke-width="1" display="none"/> 	  	</marker><marker id="_B6D5E244-24D6-4CE5-AE9A-5E1E015DDD09end" refX="15" refY="6" markerUnits="userSpaceOnUse" markerWidth="15" markerHeight="12" orient="auto" fill="#000000" stroke="#000000"> 	  		<path id="_B6D5E244-24D6-4CE5-AE9A-5E1E015DDD09frame2" d="M 0 1 L 15 6 L 0 11z" fill="#000000" stroke="#000000" stroke-linejoin="round" stroke-width="2"/> 	  	</marker><marker id="_96AFEC93-C33B-4AC1-8342-C808A7709632start" refX="1" refY="5" markerUnits="userSpaceOnUse" markerWidth="17" markerHeight="11" orient="auto" fill="#000000" stroke="#000000"> 	  		<path id="_96AFEC93-C33B-4AC1-8342-C808A7709632conditional" d="M 0 5 L 8 0 L 16 5 L 8 10 L 0 5" fill="white" stroke="#000000" stroke-width="1" display="none"/> 			<path id="_96AFEC93-C33B-4AC1-8342-C808A7709632default" d="M 5 0 L 11 10" fill="white" stroke="#000000" stroke-width="1" display="none"/> 	  	</marker><marker id="_96AFEC93-C33B-4AC1-8342-C808A7709632end" refX="15" refY="6" markerUnits="userSpaceOnUse" markerWidth="15" markerHeight="12" orient="auto" fill="#000000" stroke="#000000"> 	  		<path id="_96AFEC93-C33B-4AC1-8342-C808A7709632frame2" d="M 0 1 L 15 6 L 0 11z" fill="#000000" stroke="#000000" stroke-linejoin="round" stroke-width="2"/> 	  	</marker><marker id="_4BBA2EAC-987A-4889-9CB3-6128B6106B2Dstart" refX="1" refY="5" markerUnits="userSpaceOnUse" markerWidth="17" markerHeight="11" orient="auto" fill="#000000" stroke="#000000"> 	  		<path id="_4BBA2EAC-987A-4889-9CB3-6128B6106B2Dconditional" d="M 0 5 L 8 0 L 16 5 L 8 10 L 0 5" fill="white" stroke="#000000" stroke-width="1" display="none"/> 			<path id="_4BBA2EAC-987A-4889-9CB3-6128B6106B2Ddefault" d="M 5 0 L 11 10" fill="white" stroke="#000000" stroke-width="1" display="none"/> 	  	</marker><marker id="_4BBA2EAC-987A-4889-9CB3-6128B6106B2Dend" refX="15" refY="6" markerUnits="userSpaceOnUse" markerWidth="15" markerHeight="12" orient="auto" fill="#000000" stroke="#000000"> 	  		<path id="_4BBA2EAC-987A-4889-9CB3-6128B6106B2Dframe2" d="M 0 1 L 15 6 L 0 11z" fill="#000000" stroke="#000000" stroke-linejoin="round" stroke-width="2"/> 	  	</marker></defs><g stroke="none" font-family="Verdana, sans-serif" font-size-adjust="none" font-style="normal" font-variant="normal" font-weight="normal" line-heigth="normal" font-size="12"><g class="stencils" transform="translate(15, 14)"><g class="me"/><g class="children"><g id="_85849328-D7F6-4CD4-97AE-B29F7873BC12" bpmn2nodeid="processStartEvent"><g class="stencils" transform="translate(120, 165)"><g class="me"><g pointer-events="fill" id="_85849328-D7F6-4CD4-97AE-B29F7873BC12">        <defs id="_85849328-D7F6-4CD4-97AE-B29F7873BC12__85849328-D7F6-4CD4-97AE-B29F7873BC12_5"> 		<radialGradient id="_85849328-D7F6-4CD4-97AE-B29F7873BC12background" cx="10%" cy="10%" r="100%" fx="10%" fy="10%"> 			<stop offset="0%" stop-color="#ffffff" stop-opacity="1" id="_85849328-D7F6-4CD4-97AE-B29F7873BC12__85849328-D7F6-4CD4-97AE-B29F7873BC12_6"/> 			<stop id="_85849328-D7F6-4CD4-97AE-B29F7873BC12fill_el" offset="100%" stop-color="#9acd32" stop-opacity="1"/> 		</radialGradient> 	</defs> 	     <circle id="_85849328-D7F6-4CD4-97AE-B29F7873BC12bg_frame" cx="15" cy="15" r="15" stroke="#000000" fill="url(#_85849328-D7F6-4CD4-97AE-B29F7873BC12background) white" stroke-width="1" style="stroke-dasharray: 5.5, 3"/>      <circle id="_85849328-D7F6-4CD4-97AE-B29F7873BC12frame" cx="15" cy="15" r="15" stroke="#000000" fill="none" stroke-width="1" display="inherit"/>  	<text font-size="11" id="_85849328-D7F6-4CD4-97AE-B29F7873BC12text_name" x="15" y="32" oryx:align="top center" stroke="black" stroke-width="0pt" letter-spacing="-0.01px" fill="#000000" text-anchor="middle" transform="rotate(0 15 32)" visibility="inherit" oryx:fontSize="11"/>   </g></g><g class="children" style="overflow:hidden"/><g class="edge"/></g><g class="controls"><g class="dockers"/><g class="magnets" transform="translate(120, 165)"><g pointer-events="all" display="none" transform="translate(7, 7)"><circle cx="8" cy="8" r="4" stroke="none" fill="red" fill-opacity="0.3"/></g></g></g></g><g id="_854238C1-A425-4E55-805A-0ECA19D007EB" bpmn2nodeid="_E25E1499-7E8B-4376-A039-08FF7607178E"><g class="stencils" transform="translate(195, 140)"><g class="me"><g pointer-events="fill" oryx:minimumSize="50 40" id="_854238C1-A425-4E55-805A-0ECA19D007EB">   	<defs id="_854238C1-A425-4E55-805A-0ECA19D007EB__854238C1-A425-4E55-805A-0ECA19D007EB_17"> 		<radialGradient id="_854238C1-A425-4E55-805A-0ECA19D007EBbackground" cx="10%" cy="10%" r="100%" fx="10%" fy="10%"> 			<stop offset="0%" stop-color="#ffffff" stop-opacity="1" id="_854238C1-A425-4E55-805A-0ECA19D007EB__854238C1-A425-4E55-805A-0ECA19D007EB_18"/> 			<stop id="_854238C1-A425-4E55-805A-0ECA19D007EBfill_el" offset="100%" stop-color="#fafad2" stop-opacity="1"/> 		</radialGradient> 		<radialGradient id="_854238C1-A425-4E55-805A-0ECA19D007EBborderbackground" cx="10%" cy="10%" r="100%" fx="10%" fy="10%"> 			<stop offset="0%" stop-color="#ffffff" stop-opacity="1" id="_854238C1-A425-4E55-805A-0ECA19D007EB__854238C1-A425-4E55-805A-0ECA19D007EB_19"/> 			<stop id="_854238C1-A425-4E55-805A-0ECA19D007EBfill_border" offset="100%" stop-color="#000000" stop-opacity="1" stroke="#000000"/> 		</radialGradient> 	</defs> 	 	<rect id="_854238C1-A425-4E55-805A-0ECA19D007EBtext_frame" oryx:anchors="bottom top right left" x="1" y="1" width="94" height="79" rx="10" ry="10" stroke="none" stroke-width="0" fill="none"/> 	<rect id="_854238C1-A425-4E55-805A-0ECA19D007EBbg_frame" oryx:resize="vertical horizontal" x="0" y="0" width="100" height="80" rx="10" ry="10" stroke="#000000" stroke-width="1" fill="url(#_854238C1-A425-4E55-805A-0ECA19D007EBbackground) #ffffcc"/> 		<text font-size="12" id="_854238C1-A425-4E55-805A-0ECA19D007EBtext_name" x="50" y="40" oryx:align="middle center" oryx:fittoelem="text_frame" stroke="black" text-anchor="middle" stroke-width="0pt" letter-spacing="-0.01px" fill="#000000" transform="rotate(0 50 40)" visibility="inherit" oryx:fontSize="12"><tspan x="50" y="40" dy="5">login</tspan></text>     <g id="_854238C1-A425-4E55-805A-0ECA19D007EBmanualTask" transform="scale(0.7,0.7) translate(8,8)" display="none">     	<path oryx:anchors="top left" id="_854238C1-A425-4E55-805A-0ECA19D007EBframe" style="opacity:1;fill:none;fill-opacity:1;stroke-width:1" d="M0.5,3.751l4.083-3.25c0,0,11.166,0.083,12.083,0.083s-2.417,2.917-1.5,2.917     s11.667,0,12.584,0c1.166,1.708-0.168,3.167-0.834,3.667s0.875,1.917-1,4.417c-0.75,0.25,0.75,1.875-1.333,3.333     c-1.167,0.583,0.583,1.542-1.25,2.833c-1.167,0-20.833,0.083-20.833,0.083l-2-1.333V3.751z" stroke="#000000"/> 		<path id="_854238C1-A425-4E55-805A-0ECA19D007EBframe2" oryx:anchors="top left" style="opacity:1;fill:none;stroke-width:2" d="M 13.5 7 L 27 7" stroke="#000000"/> 		<path id="_854238C1-A425-4E55-805A-0ECA19D007EBframe3" oryx:anchors="top left" style="opacity:1;fill:none;stroke-width:2" d="M 13.5 11 L 26 11" stroke="#000000"/> 		<path id="_854238C1-A425-4E55-805A-0ECA19D007EBframe4" oryx:anchors="top left" style="opacity:1;fill:none;stroke-width:1.5" d="M 14 14.5 L 25 14.5" stroke="#000000"/> 		<path id="_854238C1-A425-4E55-805A-0ECA19D007EBframe5" oryx:anchors="top left" style="opacity:1;fill:none;stroke-width:1.5" d="M 8.2 3.1 L 15 3.1" stroke="#000000"/> 	</g> 	 	<g id="_854238C1-A425-4E55-805A-0ECA19D007EBbusinessRuleTask" transform="scale(0.7,0.7) translate(8,8)" display="none"> 		<rect id="_854238C1-A425-4E55-805A-0ECA19D007EBframe6" oryx:anchors="top left" x="0" y="0" width="22" height="4" style="opacity:1;fill:#B3B1B3;fill-opacity:1;" stroke="#000000"/> 		<rect id="_854238C1-A425-4E55-805A-0ECA19D007EBframe7" oryx:anchors="top left" x="0" y="4" style="opacity:1;fill:none;" width="22" height="12" stroke="#000000"/> 		<path id="_854238C1-A425-4E55-805A-0ECA19D007EBframe8" oryx:anchors="top left" style="opacity:1;fill:none;" d="M 0 10 L 22 10" stroke="#000000"/> 		<path id="_854238C1-A425-4E55-805A-0ECA19D007EBframe9" oryx:anchors="top left" style="opacity:1; fill:none;" d="M 7 4 L 7 16" stroke="#000000"/> 	</g> 	 	<g id="_854238C1-A425-4E55-805A-0ECA19D007EBscriptTask" transform="scale(0.7,0.7) translate(8,8)" display="none"> 		<path oryx:anchors="top left" id="_854238C1-A425-4E55-805A-0ECA19D007EBframe10" style="opacity:1;fill:none;" stroke="#000000" d="M6.402,0.5h14.5c0,0-5.833,2.833-5.833,5.583s4.417,6,4.417,9.167    s-4.167,5.083-4.167,5.083H0.235c0,0,5-2.667,5-5s-4.583-6.75-4.583-9.25S6.402,0.5,6.402,0.5z"/> 		<path oryx:anchors="top left" id="_854238C1-A425-4E55-805A-0ECA19D007EBframe11" style="opacity:1;fill:none;stroke-width:1.5" d="M 3.5 4.5 L 13.5 4.5" stroke="#000000"/> 		<path oryx:anchors="top left" id="_854238C1-A425-4E55-805A-0ECA19D007EBframe12" style="opacity:1;fill:none;stroke-width:1.5" d="M 3.8 8.5 L 13.8 8.5" stroke="#000000"/> 		<path oryx:anchors="top left" id="_854238C1-A425-4E55-805A-0ECA19D007EBframe13" style="opacity:1;fill:none;stroke-width:1.5" d="M 6.3 12.5 L 16.3 12.5" stroke="#000000"/> 		<path oryx:anchors="top left" id="_854238C1-A425-4E55-805A-0ECA19D007EBframe14" style="opacity:1;fill:none;stroke-width:1.5" d="M 6.5 16.5 L 16.5 16.5" stroke="#000000"/> 	</g> 	 	<g id="_854238C1-A425-4E55-805A-0ECA19D007EBuserTask" transform="scale(0.7,0.7) translate(8,8)" display="inherit"> 		<path id="_854238C1-A425-4E55-805A-0ECA19D007EBframe15" oryx:anchors="top left" style="opacity:1;fill:#F4F6F7" stroke="#000000" d="M0.585,24.167h24.083v-7.833c0,0-2.333-3.917-7.083-5.167h-9.25    c-4.417,1.333-7.833,5.75-7.833,5.75L0.585,24.167z"/> 		<path id="_854238C1-A425-4E55-805A-0ECA19D007EBframe16" oryx:anchors="top left" style="opacity:1;fill:none" d="M 6 20 L 6 24" stroke="#000000"/> 		<path id="_854238C1-A425-4E55-805A-0ECA19D007EBframe17" oryx:anchors="top left" style="opacity:1;fill:none" d="M 20 20 L 20 24" stroke="#000000"/> 		<circle id="_854238C1-A425-4E55-805A-0ECA19D007EBframe18" oryx:anchors="top left" fill="black" cx="13.002" cy="5.916" r="5.417" stroke="#000000"/> 		<path id="_854238C1-A425-4E55-805A-0ECA19D007EBframe19" oryx:anchors="top left" style="opacity:1;fill:#F0EFF0;" stroke="#000000" d="M8.043,7.083c0,0,2.814-2.426,5.376-1.807s4.624-0.693,4.624-0.693    c0.25,1.688,0.042,3.75-1.458,5.584c0,0,1.083,0.75,1.083,1.5s0.125,1.875-1,3s-5.5,1.25-6.75,0S8.668,12.834,8.668,12    s0.583-1.25,1.25-1.917C8.835,9.5,7.419,7.708,8.043,7.083z"/> 	</g> 	 	<g id="_854238C1-A425-4E55-805A-0ECA19D007EBserviceTask" transform="scale(0.7,0.7) translate(8,8)" display="none"> 		<polygon oryx:anchors="top left" id="_854238C1-A425-4E55-805A-0ECA19D007EBframe20" style="opacity:1;fill:#ffffff" stroke="#000000" points="15.392,5.064 17.954,2.502 20.347,4.895 17.786,7.455     18.729,9.732 22.353,9.732 22.353,13.115 18.731,13.115 17.788,15.392 20.351,17.955 17.958,20.347 15.397,17.786 13.12,18.729     13.12,22.353 9.737,22.353 9.737,18.731 7.46,17.788 4.897,20.35 2.506,17.958 5.066,15.397 4.124,13.12 0.5,13.12 0.5,9.737     4.121,9.737 5.065,7.461 2.503,4.898 4.895,2.506 7.455,5.066 9.732,4.125 9.732,0.5 13.116,0.5 13.116,4.121 "/> 		<circle oryx:anchors="top left" id="_854238C1-A425-4E55-805A-0ECA19D007EBframe21" style="opacity:1;fill:none" stroke="#000000" cx="11.427" cy="11.426" r="3.714"/> 		<polygon oryx:anchors="top left" id="_854238C1-A425-4E55-805A-0ECA19D007EBframe22" style="opacity:1;fill:#ffffff" stroke="#000000" points="21.392,11.064 23.954,8.502 26.347,10.895 23.786,13.455     24.729,15.732 28.353,15.732 28.353,19.115 24.731,19.115 23.788,21.392 26.351,23.955 23.958,26.347 21.397,23.786 19.12,24.729     19.12,28.353 15.737,28.353 15.737,24.731 13.46,23.788 10.897,26.35 8.506,23.958 11.066,21.397 10.124,19.12 6.5,19.12     6.5,15.737 10.121,15.737 11.065,13.461 8.503,10.898 10.895,8.506 13.455,11.066 15.732,10.125 15.732,6.5 19.116,6.5     19.116,10.121 "/> 		<circle oryx:anchors="top left" id="_854238C1-A425-4E55-805A-0ECA19D007EBframe23" style="opacity:1;fill:none;" stroke="#000000" cx="17.427" cy="17.426" r="3.714"/> 	</g> 	 	<g id="_854238C1-A425-4E55-805A-0ECA19D007EBsendTask" display="none"> 		<path id="_854238C1-A425-4E55-805A-0ECA19D007EBstframe24" oryx:anchors="left top" stroke="#FFFFFF" fill="black" stroke-width="1" d="M8,11 L8,21 L24,21 L24,11 L16,17z"/> 		<path id="_854238C1-A425-4E55-805A-0ECA19D007EBstframe25" oryx:anchors="left top" stroke="#FFFFFF" fill="black" stroke-width="1" d="M7,10 L16,17 L25 10z"/> 	</g> 	 	<g id="_854238C1-A425-4E55-805A-0ECA19D007EBreceiveTask" display="none"> 		<path id="_854238C1-A425-4E55-805A-0ECA19D007EBframe26" oryx:anchors="left top" stroke="#000000" fill="none" stroke-width="1" d="M8,11 L8,21 L24,21 L24,11z M8,11 L16,17 L24,11"/> 	</g> 	 	<g id="_854238C1-A425-4E55-805A-0ECA19D007EBnone" display="none"/>  	<g id="_854238C1-A425-4E55-805A-0ECA19D007EBsequential" display="none">         <path oryx:anchors="bottom" fill="none" stroke="#000000" stroke-width="2" d="M46,76h10M46,72h10 M46,68h10" id="_854238C1-A425-4E55-805A-0ECA19D007EB__854238C1-A425-4E55-805A-0ECA19D007EB_20"/>     </g>   </g></g><g class="children" style="overflow:hidden"/><g class="edge"/></g><g class="controls"><g class="dockers"/><g class="magnets" transform="translate(195, 140)"><g pointer-events="all" display="none" transform="translate(-7, 12)"><circle cx="8" cy="8" r="4" stroke="none" fill="red" fill-opacity="0.3"/></g><g pointer-events="all" display="none" transform="translate(-7, 32)"><circle cx="8" cy="8" r="4" stroke="none" fill="red" fill-opacity="0.3"/></g><g pointer-events="all" display="none" transform="translate(-7, 52)"><circle cx="8" cy="8" r="4" stroke="none" fill="red" fill-opacity="0.3"/></g><g pointer-events="all" display="none" transform="translate(17, 71)"><circle cx="8" cy="8" r="4" stroke="none" fill="red" fill-opacity="0.3"/></g><g pointer-events="all" display="none" transform="translate(42, 71)"><circle cx="8" cy="8" r="4" stroke="none" fill="red" fill-opacity="0.3"/></g><g pointer-events="all" display="none" transform="translate(67, 71)"><circle cx="8" cy="8" r="4" stroke="none" fill="red" fill-opacity="0.3"/></g><g pointer-events="all" display="none" transform="translate(91, 12)"><circle cx="8" cy="8" r="4" stroke="none" fill="red" fill-opacity="0.3"/></g><g pointer-events="all" display="none" transform="translate(91, 32)"><circle cx="8" cy="8" r="4" stroke="none" fill="red" fill-opacity="0.3"/></g><g pointer-events="all" display="none" transform="translate(91, 52)"><circle cx="8" cy="8" r="4" stroke="none" fill="red" fill-opacity="0.3"/></g><g pointer-events="all" display="none" transform="translate(17, -7)"><circle cx="8" cy="8" r="4" stroke="none" fill="red" fill-opacity="0.3"/></g><g pointer-events="all" display="none" transform="translate(42, -7)"><circle cx="8" cy="8" r="4" stroke="none" fill="red" fill-opacity="0.3"/></g><g pointer-events="all" display="none" transform="translate(67, -7)"><circle cx="8" cy="8" r="4" stroke="none" fill="red" fill-opacity="0.3"/></g><g pointer-events="all" display="none" transform="translate(42, 32)"><circle cx="8" cy="8" r="4" stroke="none" fill="red" fill-opacity="0.3"/></g></g></g></g><g id="_3A06476F-A3A3-4E19-9BAA-23DC180A3FA0" bpmn2nodeid="_187B5A12-C648-411F-B2FD-CF6866A5C9DB"><g class="stencils" transform="translate(340, 140)"><g class="me"><g pointer-events="fill" oryx:minimumSize="50 40" id="_3A06476F-A3A3-4E19-9BAA-23DC180A3FA0">   	<defs id="_3A06476F-A3A3-4E19-9BAA-23DC180A3FA0__3A06476F-A3A3-4E19-9BAA-23DC180A3FA0_17"> 		<radialGradient id="_3A06476F-A3A3-4E19-9BAA-23DC180A3FA0background" cx="10%" cy="10%" r="100%" fx="10%" fy="10%"> 			<stop offset="0%" stop-color="#ffffff" stop-opacity="1" id="_3A06476F-A3A3-4E19-9BAA-23DC180A3FA0__3A06476F-A3A3-4E19-9BAA-23DC180A3FA0_18"/> 			<stop id="_3A06476F-A3A3-4E19-9BAA-23DC180A3FA0fill_el" offset="100%" stop-color="#fafad2" stop-opacity="1"/> 		</radialGradient> 		<radialGradient id="_3A06476F-A3A3-4E19-9BAA-23DC180A3FA0borderbackground" cx="10%" cy="10%" r="100%" fx="10%" fy="10%"> 			<stop offset="0%" stop-color="#ffffff" stop-opacity="1" id="_3A06476F-A3A3-4E19-9BAA-23DC180A3FA0__3A06476F-A3A3-4E19-9BAA-23DC180A3FA0_19"/> 			<stop id="_3A06476F-A3A3-4E19-9BAA-23DC180A3FA0fill_border" offset="100%" stop-color="#000000" stop-opacity="1" stroke="#000000"/> 		</radialGradient> 	</defs> 	 	<rect id="_3A06476F-A3A3-4E19-9BAA-23DC180A3FA0text_frame" oryx:anchors="bottom top right left" x="1" y="1" width="94" height="79" rx="10" ry="10" stroke="none" stroke-width="0" fill="none"/> 	<rect id="_3A06476F-A3A3-4E19-9BAA-23DC180A3FA0bg_frame" oryx:resize="vertical horizontal" x="0" y="0" width="100" height="80" rx="10" ry="10" stroke="#000000" stroke-width="1" fill="url(#_3A06476F-A3A3-4E19-9BAA-23DC180A3FA0background) #ffffcc"/> 		<text font-size="12" id="_3A06476F-A3A3-4E19-9BAA-23DC180A3FA0text_name" x="50" y="40" oryx:align="middle center" oryx:fittoelem="text_frame" stroke="black" text-anchor="middle" stroke-width="0pt" letter-spacing="-0.01px" fill="#000000" transform="rotate(0 50 40)" visibility="inherit" oryx:fontSize="12"><tspan x="50" y="40" dy="5" id="ext-gen651">pick items</tspan></text>     <g id="_3A06476F-A3A3-4E19-9BAA-23DC180A3FA0manualTask" transform="scale(0.7,0.7) translate(8,8)" display="none">     	<path oryx:anchors="top left" id="_3A06476F-A3A3-4E19-9BAA-23DC180A3FA0frame" style="opacity:1;fill:none;fill-opacity:1;stroke-width:1" d="M0.5,3.751l4.083-3.25c0,0,11.166,0.083,12.083,0.083s-2.417,2.917-1.5,2.917     s11.667,0,12.584,0c1.166,1.708-0.168,3.167-0.834,3.667s0.875,1.917-1,4.417c-0.75,0.25,0.75,1.875-1.333,3.333     c-1.167,0.583,0.583,1.542-1.25,2.833c-1.167,0-20.833,0.083-20.833,0.083l-2-1.333V3.751z" stroke="#000000"/> 		<path id="_3A06476F-A3A3-4E19-9BAA-23DC180A3FA0frame2" oryx:anchors="top left" style="opacity:1;fill:none;stroke-width:2" d="M 13.5 7 L 27 7" stroke="#000000"/> 		<path id="_3A06476F-A3A3-4E19-9BAA-23DC180A3FA0frame3" oryx:anchors="top left" style="opacity:1;fill:none;stroke-width:2" d="M 13.5 11 L 26 11" stroke="#000000"/> 		<path id="_3A06476F-A3A3-4E19-9BAA-23DC180A3FA0frame4" oryx:anchors="top left" style="opacity:1;fill:none;stroke-width:1.5" d="M 14 14.5 L 25 14.5" stroke="#000000"/> 		<path id="_3A06476F-A3A3-4E19-9BAA-23DC180A3FA0frame5" oryx:anchors="top left" style="opacity:1;fill:none;stroke-width:1.5" d="M 8.2 3.1 L 15 3.1" stroke="#000000"/> 	</g> 	 	<g id="_3A06476F-A3A3-4E19-9BAA-23DC180A3FA0businessRuleTask" transform="scale(0.7,0.7) translate(8,8)" display="none"> 		<rect id="_3A06476F-A3A3-4E19-9BAA-23DC180A3FA0frame6" oryx:anchors="top left" x="0" y="0" width="22" height="4" style="opacity:1;fill:#B3B1B3;fill-opacity:1;" stroke="#000000"/> 		<rect id="_3A06476F-A3A3-4E19-9BAA-23DC180A3FA0frame7" oryx:anchors="top left" x="0" y="4" style="opacity:1;fill:none;" width="22" height="12" stroke="#000000"/> 		<path id="_3A06476F-A3A3-4E19-9BAA-23DC180A3FA0frame8" oryx:anchors="top left" style="opacity:1;fill:none;" d="M 0 10 L 22 10" stroke="#000000"/> 		<path id="_3A06476F-A3A3-4E19-9BAA-23DC180A3FA0frame9" oryx:anchors="top left" style="opacity:1; fill:none;" d="M 7 4 L 7 16" stroke="#000000"/> 	</g> 	 	<g id="_3A06476F-A3A3-4E19-9BAA-23DC180A3FA0scriptTask" transform="scale(0.7,0.7) translate(8,8)" display="none"> 		<path oryx:anchors="top left" id="_3A06476F-A3A3-4E19-9BAA-23DC180A3FA0frame10" style="opacity:1;fill:none;" stroke="#000000" d="M6.402,0.5h14.5c0,0-5.833,2.833-5.833,5.583s4.417,6,4.417,9.167    s-4.167,5.083-4.167,5.083H0.235c0,0,5-2.667,5-5s-4.583-6.75-4.583-9.25S6.402,0.5,6.402,0.5z"/> 		<path oryx:anchors="top left" id="_3A06476F-A3A3-4E19-9BAA-23DC180A3FA0frame11" style="opacity:1;fill:none;stroke-width:1.5" d="M 3.5 4.5 L 13.5 4.5" stroke="#000000"/> 		<path oryx:anchors="top left" id="_3A06476F-A3A3-4E19-9BAA-23DC180A3FA0frame12" style="opacity:1;fill:none;stroke-width:1.5" d="M 3.8 8.5 L 13.8 8.5" stroke="#000000"/> 		<path oryx:anchors="top left" id="_3A06476F-A3A3-4E19-9BAA-23DC180A3FA0frame13" style="opacity:1;fill:none;stroke-width:1.5" d="M 6.3 12.5 L 16.3 12.5" stroke="#000000"/> 		<path oryx:anchors="top left" id="_3A06476F-A3A3-4E19-9BAA-23DC180A3FA0frame14" style="opacity:1;fill:none;stroke-width:1.5" d="M 6.5 16.5 L 16.5 16.5" stroke="#000000"/> 	</g> 	 	<g id="_3A06476F-A3A3-4E19-9BAA-23DC180A3FA0userTask" transform="scale(0.7,0.7) translate(8,8)" display="inherit"> 		<path id="_3A06476F-A3A3-4E19-9BAA-23DC180A3FA0frame15" oryx:anchors="top left" style="opacity:1;fill:#F4F6F7" stroke="#000000" d="M0.585,24.167h24.083v-7.833c0,0-2.333-3.917-7.083-5.167h-9.25    c-4.417,1.333-7.833,5.75-7.833,5.75L0.585,24.167z"/> 		<path id="_3A06476F-A3A3-4E19-9BAA-23DC180A3FA0frame16" oryx:anchors="top left" style="opacity:1;fill:none" d="M 6 20 L 6 24" stroke="#000000"/> 		<path id="_3A06476F-A3A3-4E19-9BAA-23DC180A3FA0frame17" oryx:anchors="top left" style="opacity:1;fill:none" d="M 20 20 L 20 24" stroke="#000000"/> 		<circle id="_3A06476F-A3A3-4E19-9BAA-23DC180A3FA0frame18" oryx:anchors="top left" fill="black" cx="13.002" cy="5.916" r="5.417" stroke="#000000"/> 		<path id="_3A06476F-A3A3-4E19-9BAA-23DC180A3FA0frame19" oryx:anchors="top left" style="opacity:1;fill:#F0EFF0;" stroke="#000000" d="M8.043,7.083c0,0,2.814-2.426,5.376-1.807s4.624-0.693,4.624-0.693    c0.25,1.688,0.042,3.75-1.458,5.584c0,0,1.083,0.75,1.083,1.5s0.125,1.875-1,3s-5.5,1.25-6.75,0S8.668,12.834,8.668,12    s0.583-1.25,1.25-1.917C8.835,9.5,7.419,7.708,8.043,7.083z"/> 	</g> 	 	<g id="_3A06476F-A3A3-4E19-9BAA-23DC180A3FA0serviceTask" transform="scale(0.7,0.7) translate(8,8)" display="none"> 		<polygon oryx:anchors="top left" id="_3A06476F-A3A3-4E19-9BAA-23DC180A3FA0frame20" style="opacity:1;fill:#ffffff" stroke="#000000" points="15.392,5.064 17.954,2.502 20.347,4.895 17.786,7.455     18.729,9.732 22.353,9.732 22.353,13.115 18.731,13.115 17.788,15.392 20.351,17.955 17.958,20.347 15.397,17.786 13.12,18.729     13.12,22.353 9.737,22.353 9.737,18.731 7.46,17.788 4.897,20.35 2.506,17.958 5.066,15.397 4.124,13.12 0.5,13.12 0.5,9.737     4.121,9.737 5.065,7.461 2.503,4.898 4.895,2.506 7.455,5.066 9.732,4.125 9.732,0.5 13.116,0.5 13.116,4.121 "/> 		<circle oryx:anchors="top left" id="_3A06476F-A3A3-4E19-9BAA-23DC180A3FA0frame21" style="opacity:1;fill:none" stroke="#000000" cx="11.427" cy="11.426" r="3.714"/> 		<polygon oryx:anchors="top left" id="_3A06476F-A3A3-4E19-9BAA-23DC180A3FA0frame22" style="opacity:1;fill:#ffffff" stroke="#000000" points="21.392,11.064 23.954,8.502 26.347,10.895 23.786,13.455     24.729,15.732 28.353,15.732 28.353,19.115 24.731,19.115 23.788,21.392 26.351,23.955 23.958,26.347 21.397,23.786 19.12,24.729     19.12,28.353 15.737,28.353 15.737,24.731 13.46,23.788 10.897,26.35 8.506,23.958 11.066,21.397 10.124,19.12 6.5,19.12     6.5,15.737 10.121,15.737 11.065,13.461 8.503,10.898 10.895,8.506 13.455,11.066 15.732,10.125 15.732,6.5 19.116,6.5     19.116,10.121 "/> 		<circle oryx:anchors="top left" id="_3A06476F-A3A3-4E19-9BAA-23DC180A3FA0frame23" style="opacity:1;fill:none;" stroke="#000000" cx="17.427" cy="17.426" r="3.714"/> 	</g> 	 	<g id="_3A06476F-A3A3-4E19-9BAA-23DC180A3FA0sendTask" display="none"> 		<path id="_3A06476F-A3A3-4E19-9BAA-23DC180A3FA0stframe24" oryx:anchors="left top" stroke="#FFFFFF" fill="black" stroke-width="1" d="M8,11 L8,21 L24,21 L24,11 L16,17z"/> 		<path id="_3A06476F-A3A3-4E19-9BAA-23DC180A3FA0stframe25" oryx:anchors="left top" stroke="#FFFFFF" fill="black" stroke-width="1" d="M7,10 L16,17 L25 10z"/> 	</g> 	 	<g id="_3A06476F-A3A3-4E19-9BAA-23DC180A3FA0receiveTask" display="none"> 		<path id="_3A06476F-A3A3-4E19-9BAA-23DC180A3FA0frame26" oryx:anchors="left top" stroke="#000000" fill="none" stroke-width="1" d="M8,11 L8,21 L24,21 L24,11z M8,11 L16,17 L24,11"/> 	</g> 	 	<g id="_3A06476F-A3A3-4E19-9BAA-23DC180A3FA0none" display="none"/>  	<g id="_3A06476F-A3A3-4E19-9BAA-23DC180A3FA0sequential" display="none">         <path oryx:anchors="bottom" fill="none" stroke="#000000" stroke-width="2" d="M46,76h10M46,72h10 M46,68h10" id="_3A06476F-A3A3-4E19-9BAA-23DC180A3FA0__3A06476F-A3A3-4E19-9BAA-23DC180A3FA0_20"/>     </g>   </g></g><g class="children" style="overflow:hidden"/><g class="edge"/></g><g class="controls"><g class="dockers"/><g class="magnets" transform="translate(340, 140)"><g pointer-events="all" display="none" transform="translate(-7, 12)"><circle cx="8" cy="8" r="4" stroke="none" fill="red" fill-opacity="0.3"/></g><g pointer-events="all" display="none" transform="translate(-7, 32)"><circle cx="8" cy="8" r="4" stroke="none" fill="red" fill-opacity="0.3"/></g><g pointer-events="all" display="none" transform="translate(-7, 52)"><circle cx="8" cy="8" r="4" stroke="none" fill="red" fill-opacity="0.3"/></g><g pointer-events="all" display="none" transform="translate(17, 71)"><circle cx="8" cy="8" r="4" stroke="none" fill="red" fill-opacity="0.3"/></g><g pointer-events="all" display="none" transform="translate(42, 71)"><circle cx="8" cy="8" r="4" stroke="none" fill="red" fill-opacity="0.3"/></g><g pointer-events="all" display="none" transform="translate(67, 71)"><circle cx="8" cy="8" r="4" stroke="none" fill="red" fill-opacity="0.3"/></g><g pointer-events="all" display="none" transform="translate(91, 12)"><circle cx="8" cy="8" r="4" stroke="none" fill="red" fill-opacity="0.3"/></g><g pointer-events="all" display="none" transform="translate(91, 32)"><circle cx="8" cy="8" r="4" stroke="none" fill="red" fill-opacity="0.3"/></g><g pointer-events="all" display="none" transform="translate(91, 52)"><circle cx="8" cy="8" r="4" stroke="none" fill="red" fill-opacity="0.3"/></g><g pointer-events="all" display="none" transform="translate(17, -7)"><circle cx="8" cy="8" r="4" stroke="none" fill="red" fill-opacity="0.3"/></g><g pointer-events="all" display="none" transform="translate(42, -7)"><circle cx="8" cy="8" r="4" stroke="none" fill="red" fill-opacity="0.3"/></g><g pointer-events="all" display="none" transform="translate(67, -7)"><circle cx="8" cy="8" r="4" stroke="none" fill="red" fill-opacity="0.3"/></g><g pointer-events="all" display="none" transform="translate(42, 32)"><circle cx="8" cy="8" r="4" stroke="none" fill="red" fill-opacity="0.3"/></g></g></g></g><g id="_0C95780E-778B-43C0-A7BD-9B84DC3BA1EE" bpmn2nodeid="_189DEABA-F4EB-4D2D-8C4A-89D89C8826DC"><g class="stencils" transform="translate(485, 140)"><g class="me"><g pointer-events="fill" oryx:minimumSize="50 40" id="_0C95780E-778B-43C0-A7BD-9B84DC3BA1EE">   	<defs id="_0C95780E-778B-43C0-A7BD-9B84DC3BA1EE__0C95780E-778B-43C0-A7BD-9B84DC3BA1EE_17"> 		<radialGradient id="_0C95780E-778B-43C0-A7BD-9B84DC3BA1EEbackground" cx="10%" cy="10%" r="100%" fx="10%" fy="10%"> 			<stop offset="0%" stop-color="#ffffff" stop-opacity="1" id="_0C95780E-778B-43C0-A7BD-9B84DC3BA1EE__0C95780E-778B-43C0-A7BD-9B84DC3BA1EE_18"/> 			<stop id="_0C95780E-778B-43C0-A7BD-9B84DC3BA1EEfill_el" offset="100%" stop-color="#fafad2" stop-opacity="1"/> 		</radialGradient> 		<radialGradient id="_0C95780E-778B-43C0-A7BD-9B84DC3BA1EEborderbackground" cx="10%" cy="10%" r="100%" fx="10%" fy="10%"> 			<stop offset="0%" stop-color="#ffffff" stop-opacity="1" id="_0C95780E-778B-43C0-A7BD-9B84DC3BA1EE__0C95780E-778B-43C0-A7BD-9B84DC3BA1EE_19"/> 			<stop id="_0C95780E-778B-43C0-A7BD-9B84DC3BA1EEfill_border" offset="100%" stop-color="#000000" stop-opacity="1" stroke="#000000"/> 		</radialGradient> 	</defs> 	 	<rect id="_0C95780E-778B-43C0-A7BD-9B84DC3BA1EEtext_frame" oryx:anchors="bottom top right left" x="1" y="1" width="94" height="79" rx="10" ry="10" stroke="none" stroke-width="0" fill="none"/> 	<rect id="_0C95780E-778B-43C0-A7BD-9B84DC3BA1EEbg_frame" oryx:resize="vertical horizontal" x="0" y="0" width="100" height="80" rx="10" ry="10" stroke="#000000" stroke-width="1" fill="url(#_0C95780E-778B-43C0-A7BD-9B84DC3BA1EEbackground) #ffffcc"/> 		<text font-size="12" id="_0C95780E-778B-43C0-A7BD-9B84DC3BA1EEtext_name" x="50" y="40" oryx:align="middle center" oryx:fittoelem="text_frame" stroke="black" text-anchor="middle" stroke-width="0pt" letter-spacing="-0.01px" fill="#000000" transform="rotate(0 50 40)" visibility="inherit" oryx:fontSize="12"><tspan x="50" y="40" dy="5" id="ext-gen695">checkout</tspan></text>     <g id="_0C95780E-778B-43C0-A7BD-9B84DC3BA1EEmanualTask" transform="scale(0.7,0.7) translate(8,8)" display="none">     	<path oryx:anchors="top left" id="_0C95780E-778B-43C0-A7BD-9B84DC3BA1EEframe" style="opacity:1;fill:none;fill-opacity:1;stroke-width:1" d="M0.5,3.751l4.083-3.25c0,0,11.166,0.083,12.083,0.083s-2.417,2.917-1.5,2.917     s11.667,0,12.584,0c1.166,1.708-0.168,3.167-0.834,3.667s0.875,1.917-1,4.417c-0.75,0.25,0.75,1.875-1.333,3.333     c-1.167,0.583,0.583,1.542-1.25,2.833c-1.167,0-20.833,0.083-20.833,0.083l-2-1.333V3.751z" stroke="#000000"/> 		<path id="_0C95780E-778B-43C0-A7BD-9B84DC3BA1EEframe2" oryx:anchors="top left" style="opacity:1;fill:none;stroke-width:2" d="M 13.5 7 L 27 7" stroke="#000000"/> 		<path id="_0C95780E-778B-43C0-A7BD-9B84DC3BA1EEframe3" oryx:anchors="top left" style="opacity:1;fill:none;stroke-width:2" d="M 13.5 11 L 26 11" stroke="#000000"/> 		<path id="_0C95780E-778B-43C0-A7BD-9B84DC3BA1EEframe4" oryx:anchors="top left" style="opacity:1;fill:none;stroke-width:1.5" d="M 14 14.5 L 25 14.5" stroke="#000000"/> 		<path id="_0C95780E-778B-43C0-A7BD-9B84DC3BA1EEframe5" oryx:anchors="top left" style="opacity:1;fill:none;stroke-width:1.5" d="M 8.2 3.1 L 15 3.1" stroke="#000000"/> 	</g> 	 	<g id="_0C95780E-778B-43C0-A7BD-9B84DC3BA1EEbusinessRuleTask" transform="scale(0.7,0.7) translate(8,8)" display="none"> 		<rect id="_0C95780E-778B-43C0-A7BD-9B84DC3BA1EEframe6" oryx:anchors="top left" x="0" y="0" width="22" height="4" style="opacity:1;fill:#B3B1B3;fill-opacity:1;" stroke="#000000"/> 		<rect id="_0C95780E-778B-43C0-A7BD-9B84DC3BA1EEframe7" oryx:anchors="top left" x="0" y="4" style="opacity:1;fill:none;" width="22" height="12" stroke="#000000"/> 		<path id="_0C95780E-778B-43C0-A7BD-9B84DC3BA1EEframe8" oryx:anchors="top left" style="opacity:1;fill:none;" d="M 0 10 L 22 10" stroke="#000000"/> 		<path id="_0C95780E-778B-43C0-A7BD-9B84DC3BA1EEframe9" oryx:anchors="top left" style="opacity:1; fill:none;" d="M 7 4 L 7 16" stroke="#000000"/> 	</g> 	 	<g id="_0C95780E-778B-43C0-A7BD-9B84DC3BA1EEscriptTask" transform="scale(0.7,0.7) translate(8,8)" display="none"> 		<path oryx:anchors="top left" id="_0C95780E-778B-43C0-A7BD-9B84DC3BA1EEframe10" style="opacity:1;fill:none;" stroke="#000000" d="M6.402,0.5h14.5c0,0-5.833,2.833-5.833,5.583s4.417,6,4.417,9.167    s-4.167,5.083-4.167,5.083H0.235c0,0,5-2.667,5-5s-4.583-6.75-4.583-9.25S6.402,0.5,6.402,0.5z"/> 		<path oryx:anchors="top left" id="_0C95780E-778B-43C0-A7BD-9B84DC3BA1EEframe11" style="opacity:1;fill:none;stroke-width:1.5" d="M 3.5 4.5 L 13.5 4.5" stroke="#000000"/> 		<path oryx:anchors="top left" id="_0C95780E-778B-43C0-A7BD-9B84DC3BA1EEframe12" style="opacity:1;fill:none;stroke-width:1.5" d="M 3.8 8.5 L 13.8 8.5" stroke="#000000"/> 		<path oryx:anchors="top left" id="_0C95780E-778B-43C0-A7BD-9B84DC3BA1EEframe13" style="opacity:1;fill:none;stroke-width:1.5" d="M 6.3 12.5 L 16.3 12.5" stroke="#000000"/> 		<path oryx:anchors="top left" id="_0C95780E-778B-43C0-A7BD-9B84DC3BA1EEframe14" style="opacity:1;fill:none;stroke-width:1.5" d="M 6.5 16.5 L 16.5 16.5" stroke="#000000"/> 	</g> 	 	<g id="_0C95780E-778B-43C0-A7BD-9B84DC3BA1EEuserTask" transform="scale(0.7,0.7) translate(8,8)" display="inherit"> 		<path id="_0C95780E-778B-43C0-A7BD-9B84DC3BA1EEframe15" oryx:anchors="top left" style="opacity:1;fill:#F4F6F7" stroke="#000000" d="M0.585,24.167h24.083v-7.833c0,0-2.333-3.917-7.083-5.167h-9.25    c-4.417,1.333-7.833,5.75-7.833,5.75L0.585,24.167z"/> 		<path id="_0C95780E-778B-43C0-A7BD-9B84DC3BA1EEframe16" oryx:anchors="top left" style="opacity:1;fill:none" d="M 6 20 L 6 24" stroke="#000000"/> 		<path id="_0C95780E-778B-43C0-A7BD-9B84DC3BA1EEframe17" oryx:anchors="top left" style="opacity:1;fill:none" d="M 20 20 L 20 24" stroke="#000000"/> 		<circle id="_0C95780E-778B-43C0-A7BD-9B84DC3BA1EEframe18" oryx:anchors="top left" fill="black" cx="13.002" cy="5.916" r="5.417" stroke="#000000"/> 		<path id="_0C95780E-778B-43C0-A7BD-9B84DC3BA1EEframe19" oryx:anchors="top left" style="opacity:1;fill:#F0EFF0;" stroke="#000000" d="M8.043,7.083c0,0,2.814-2.426,5.376-1.807s4.624-0.693,4.624-0.693    c0.25,1.688,0.042,3.75-1.458,5.584c0,0,1.083,0.75,1.083,1.5s0.125,1.875-1,3s-5.5,1.25-6.75,0S8.668,12.834,8.668,12    s0.583-1.25,1.25-1.917C8.835,9.5,7.419,7.708,8.043,7.083z"/> 	</g> 	 	<g id="_0C95780E-778B-43C0-A7BD-9B84DC3BA1EEserviceTask" transform="scale(0.7,0.7) translate(8,8)" display="none"> 		<polygon oryx:anchors="top left" id="_0C95780E-778B-43C0-A7BD-9B84DC3BA1EEframe20" style="opacity:1;fill:#ffffff" stroke="#000000" points="15.392,5.064 17.954,2.502 20.347,4.895 17.786,7.455     18.729,9.732 22.353,9.732 22.353,13.115 18.731,13.115 17.788,15.392 20.351,17.955 17.958,20.347 15.397,17.786 13.12,18.729     13.12,22.353 9.737,22.353 9.737,18.731 7.46,17.788 4.897,20.35 2.506,17.958 5.066,15.397 4.124,13.12 0.5,13.12 0.5,9.737     4.121,9.737 5.065,7.461 2.503,4.898 4.895,2.506 7.455,5.066 9.732,4.125 9.732,0.5 13.116,0.5 13.116,4.121 "/> 		<circle oryx:anchors="top left" id="_0C95780E-778B-43C0-A7BD-9B84DC3BA1EEframe21" style="opacity:1;fill:none" stroke="#000000" cx="11.427" cy="11.426" r="3.714"/> 		<polygon oryx:anchors="top left" id="_0C95780E-778B-43C0-A7BD-9B84DC3BA1EEframe22" style="opacity:1;fill:#ffffff" stroke="#000000" points="21.392,11.064 23.954,8.502 26.347,10.895 23.786,13.455     24.729,15.732 28.353,15.732 28.353,19.115 24.731,19.115 23.788,21.392 26.351,23.955 23.958,26.347 21.397,23.786 19.12,24.729     19.12,28.353 15.737,28.353 15.737,24.731 13.46,23.788 10.897,26.35 8.506,23.958 11.066,21.397 10.124,19.12 6.5,19.12     6.5,15.737 10.121,15.737 11.065,13.461 8.503,10.898 10.895,8.506 13.455,11.066 15.732,10.125 15.732,6.5 19.116,6.5     19.116,10.121 "/> 		<circle oryx:anchors="top left" id="_0C95780E-778B-43C0-A7BD-9B84DC3BA1EEframe23" style="opacity:1;fill:none;" stroke="#000000" cx="17.427" cy="17.426" r="3.714"/> 	</g> 	 	<g id="_0C95780E-778B-43C0-A7BD-9B84DC3BA1EEsendTask" display="none"> 		<path id="_0C95780E-778B-43C0-A7BD-9B84DC3BA1EEstframe24" oryx:anchors="left top" stroke="#FFFFFF" fill="black" stroke-width="1" d="M8,11 L8,21 L24,21 L24,11 L16,17z"/> 		<path id="_0C95780E-778B-43C0-A7BD-9B84DC3BA1EEstframe25" oryx:anchors="left top" stroke="#FFFFFF" fill="black" stroke-width="1" d="M7,10 L16,17 L25 10z"/> 	</g> 	 	<g id="_0C95780E-778B-43C0-A7BD-9B84DC3BA1EEreceiveTask" display="none"> 		<path id="_0C95780E-778B-43C0-A7BD-9B84DC3BA1EEframe26" oryx:anchors="left top" stroke="#000000" fill="none" stroke-width="1" d="M8,11 L8,21 L24,21 L24,11z M8,11 L16,17 L24,11"/> 	</g> 	 	<g id="_0C95780E-778B-43C0-A7BD-9B84DC3BA1EEnone" display="none"/>  	<g id="_0C95780E-778B-43C0-A7BD-9B84DC3BA1EEsequential" display="none">         <path oryx:anchors="bottom" fill="none" stroke="#000000" stroke-width="2" d="M46,76h10M46,72h10 M46,68h10" id="_0C95780E-778B-43C0-A7BD-9B84DC3BA1EE__0C95780E-778B-43C0-A7BD-9B84DC3BA1EE_20"/>     </g>   </g></g><g class="children" style="overflow:hidden"/><g class="edge"/></g><g class="controls"><g class="dockers"/><g class="magnets" transform="translate(485, 140)"><g pointer-events="all" display="none" transform="translate(-7, 12)"><circle cx="8" cy="8" r="4" stroke="none" fill="red" fill-opacity="0.3"/></g><g pointer-events="all" display="none" transform="translate(-7, 32)"><circle cx="8" cy="8" r="4" stroke="none" fill="red" fill-opacity="0.3"/></g><g pointer-events="all" display="none" transform="translate(-7, 52)"><circle cx="8" cy="8" r="4" stroke="none" fill="red" fill-opacity="0.3"/></g><g pointer-events="all" display="none" transform="translate(17, 71)"><circle cx="8" cy="8" r="4" stroke="none" fill="red" fill-opacity="0.3"/></g><g pointer-events="all" display="none" transform="translate(42, 71)"><circle cx="8" cy="8" r="4" stroke="none" fill="red" fill-opacity="0.3"/></g><g pointer-events="all" display="none" transform="translate(67, 71)"><circle cx="8" cy="8" r="4" stroke="none" fill="red" fill-opacity="0.3"/></g><g pointer-events="all" display="none" transform="translate(91, 12)"><circle cx="8" cy="8" r="4" stroke="none" fill="red" fill-opacity="0.3"/></g><g pointer-events="all" display="none" transform="translate(91, 32)"><circle cx="8" cy="8" r="4" stroke="none" fill="red" fill-opacity="0.3"/></g><g pointer-events="all" display="none" transform="translate(91, 52)"><circle cx="8" cy="8" r="4" stroke="none" fill="red" fill-opacity="0.3"/></g><g pointer-events="all" display="none" transform="translate(17, -7)"><circle cx="8" cy="8" r="4" stroke="none" fill="red" fill-opacity="0.3"/></g><g pointer-events="all" display="none" transform="translate(42, -7)"><circle cx="8" cy="8" r="4" stroke="none" fill="red" fill-opacity="0.3"/></g><g pointer-events="all" display="none" transform="translate(67, -7)"><circle cx="8" cy="8" r="4" stroke="none" fill="red" fill-opacity="0.3"/></g><g pointer-events="all" display="none" transform="translate(42, 32)"><circle cx="8" cy="8" r="4" stroke="none" fill="red" fill-opacity="0.3"/></g></g></g></g><g id="_B32AD16E-C092-4AE2-9BFF-FC35C8FD0C91" bpmn2nodeid="_8BA911C1-CEC9-4870-9E44-35A9885D1124"><g class="stencils" transform="translate(630, 166)"><g class="me"><g pointer-events="fill" id="_B32AD16E-C092-4AE2-9BFF-FC35C8FD0C91">      <defs id="_B32AD16E-C092-4AE2-9BFF-FC35C8FD0C91__B32AD16E-C092-4AE2-9BFF-FC35C8FD0C91_5"> 		<radialGradient id="_B32AD16E-C092-4AE2-9BFF-FC35C8FD0C91background" cx="10%" cy="10%" r="100%" fx="10%" fy="10%"> 			<stop offset="0%" stop-color="#ffffff" stop-opacity="1" id="_B32AD16E-C092-4AE2-9BFF-FC35C8FD0C91__B32AD16E-C092-4AE2-9BFF-FC35C8FD0C91_6"/> 			<stop id="_B32AD16E-C092-4AE2-9BFF-FC35C8FD0C91fill_el" offset="100%" stop-color="#ff6347" stop-opacity="1"/> 		</radialGradient> 	</defs> 	     <circle id="_B32AD16E-C092-4AE2-9BFF-FC35C8FD0C91bg_frame" cx="14" cy="14" r="14" stroke="#000000" fill="url(#_B32AD16E-C092-4AE2-9BFF-FC35C8FD0C91background) white" stroke-width="3"/> 	<text font-size="11" id="_B32AD16E-C092-4AE2-9BFF-FC35C8FD0C91text_name" x="14" y="30" oryx:align="top center" stroke="black" stroke-width="0pt" letter-spacing="-0.01px" fill="#000000" text-anchor="middle" transform="rotate(0 14 30)" visibility="inherit" oryx:fontSize="11"/>   </g></g><g class="children" style="overflow:hidden"/><g class="edge"/></g><g class="controls"><g class="dockers"/><g class="magnets" transform="translate(630, 166)"><g pointer-events="all" display="none" transform="translate(6, 6)"><circle cx="8" cy="8" r="4" stroke="none" fill="red" fill-opacity="0.3"/></g></g></g></g></g><g class="edge"><g id="_67CB21CD-1A8E-4884-BBBA-3B4891BDE512" bpmn2nodeid="_0A6C7808-A8D6-4365-B73E-E2A1B46E4F6F"><g class="stencils"><g class="me"><g pointer-events="painted" bpmn2nodeid="_F67049D4-9134-43FB-AC58-5F47F087E0AE"><path id="_67CB21CD-1A8E-4884-BBBA-3B4891BDE512_1" d="M150.609375 180L194.15625 180 " stroke="#000000" fill="none" stroke-width="2" stroke-linecap="round" stroke-linejoin="round" marker-start="url(#_67CB21CD-1A8E-4884-BBBA-3B4891BDE512start)" marker-end="url(#_67CB21CD-1A8E-4884-BBBA-3B4891BDE512end)"/></g><text id="_67CB21CD-1A8E-4884-BBBA-3B4891BDE512text_name" font-size="12" x="164.609375" y="166" oryx:edgePosition="startTop" stroke-width="0pt" letter-spacing="-0.01px" fill="#000000" text-anchor="start" transform="rotate(360 150.609375 180)" visibility="inherit" oryx:fontSize="12"/></g><g class="children" style="overflow:hidden"/><g class="edge"/></g><g class="controls"><g class="dockers"/><g class="magnets"/></g></g><g id="_B6D5E244-24D6-4CE5-AE9A-5E1E015DDD09" bpmn2nodeid="_5F0DDB82-49FF-4F63-BE0D-864E9EE0E83A"><g class="stencils"><g class="me"><g pointer-events="painted" bpmn2nodeid="_CD57EC6E-2E46-4EE9-9D2A-89A0037E0E77"><path id="_B6D5E244-24D6-4CE5-AE9A-5E1E015DDD09_1" d="M295.84375 180L339.15625 180 " stroke="#000000" fill="none" stroke-width="2" stroke-linecap="round" stroke-linejoin="round" marker-start="url(#_B6D5E244-24D6-4CE5-AE9A-5E1E015DDD09start)" marker-end="url(#_B6D5E244-24D6-4CE5-AE9A-5E1E015DDD09end)"/></g><text id="_B6D5E244-24D6-4CE5-AE9A-5E1E015DDD09text_name" font-size="12" x="309.84375" y="166" oryx:edgePosition="startTop" stroke-width="0pt" letter-spacing="-0.01px" fill="#000000" text-anchor="start" transform="rotate(360 295.84375 180)" visibility="inherit" oryx:fontSize="12"/></g><g class="children" style="overflow:hidden"/><g class="edge"/></g><g class="controls"><g class="dockers"/><g class="magnets"/></g></g><g id="_96AFEC93-C33B-4AC1-8342-C808A7709632" bpmn2nodeid="_1997F5F7-1DA1-4196-90E1-2EF94A5D1DAC"><g class="stencils"><g class="me"><g pointer-events="painted" bpmn2nodeid="_D34C76E9-7ABE-49F6-AA61-C522EE9277A4"><path id="_96AFEC93-C33B-4AC1-8342-C808A7709632_1" d="M440.84375 180L484.15625 180 " stroke="#000000" fill="none" stroke-width="2" stroke-linecap="round" stroke-linejoin="round" marker-start="url(#_96AFEC93-C33B-4AC1-8342-C808A7709632start)" marker-end="url(#_96AFEC93-C33B-4AC1-8342-C808A7709632end)"/></g><text id="_96AFEC93-C33B-4AC1-8342-C808A7709632text_name" font-size="12" x="454.84375" y="166" oryx:edgePosition="startTop" stroke-width="0pt" letter-spacing="-0.01px" fill="#000000" text-anchor="start" transform="rotate(360 440.84375 180)" visibility="inherit" oryx:fontSize="12"/></g><g class="children" style="overflow:hidden"/><g class="edge"/></g><g class="controls"><g class="dockers"/><g class="magnets"/></g></g><g id="_4BBA2EAC-987A-4889-9CB3-6128B6106B2D" bpmn2nodeid="_9F14F772-3B6A-48D9-9AB1-88769E46B113"><g class="stencils"><g class="me"><g pointer-events="painted" bpmn2nodeid="_3E630210-36AB-4AD0-802F-920253CEEF7F"><path id="_4BBA2EAC-987A-4889-9CB3-6128B6106B2D_1" d="M585.390625 180L629.375 180 " stroke="#000000" fill="none" stroke-width="2" stroke-linecap="round" stroke-linejoin="round" marker-start="url(#_4BBA2EAC-987A-4889-9CB3-6128B6106B2Dstart)" marker-end="url(#_4BBA2EAC-987A-4889-9CB3-6128B6106B2Dend)"/></g><text id="_4BBA2EAC-987A-4889-9CB3-6128B6106B2Dtext_name" font-size="12" x="599.390625" y="166" oryx:edgePosition="startTop" stroke-width="0pt" letter-spacing="-0.01px" fill="#000000" text-anchor="start" transform="rotate(360 585.390625 180)" visibility="inherit" oryx:fontSize="12"/></g><g class="children" style="overflow:hidden"/><g class="edge"/></g><g class="controls"><g class="dockers"/><g class="magnets"/></g></g></g><text id="_731B8F49-07CF-4801-AEA6-0113B564D902" style="stroke-width:1;fill:rgb(177,194,214);font-family:arial;font-weight:bold" font-size="12" onclick="ORYX.Plugins.CanvasTitle.openTextualAnalysis()" onmouseover="ORYX.Plugins.CanvasTitle.addToolTip('_731B8F49-07CF-4801-AEA6-0113B564D902')" transform="translate(10, 20)">order v.1.0 (src.order)</text></g></g></svg>